<svg width="34" height="21" viewBox="0 0 34 21" fill="none" xmlns="http://www.w3.org/2000/svg">
<mask id="path-1-outside-1_25_1147" maskUnits="userSpaceOnUse" x="-1.2998" y="-0.424194" width="37" height="22" fill="black">
<rect fill="white" x="-1.2998" y="-0.424194" width="37" height="22"/>
<path d="M7.22877 12.7854H9.87978L11.7459 15.2184L12.6267 16.2998L15.6004 20.1804H12.8447L10.8565 17.5904L10.1763 16.6486L7.22877 12.7854ZM16.1759 9.64609C16.1759 11.553 15.8271 13.1924 15.1295 14.5644C14.4318 15.9306 13.4755 16.9829 12.2605 17.7212C11.0512 18.4537 9.6763 18.82 8.13569 18.82C6.58927 18.82 5.20854 18.4537 3.99349 17.7212C2.78426 16.9829 1.83083 15.9277 1.13319 14.5557C0.435559 13.1837 0.0867425 11.5471 0.0867425 9.64609C0.0867425 7.73923 0.435559 6.10269 1.13319 4.73649C1.83083 3.36448 2.78426 2.31222 3.99349 1.5797C5.20854 0.841373 6.58927 0.472208 8.13569 0.472208C9.6763 0.472208 11.0512 0.841373 12.2605 1.5797C13.4755 2.31222 14.4318 3.36448 15.1295 4.73649C15.8271 6.10269 16.1759 7.73923 16.1759 9.64609ZM13.5075 9.64609C13.5075 8.19269 13.272 6.96892 12.8011 5.97479C12.336 4.97485 11.6965 4.21908 10.8826 3.70749C10.0745 3.19007 9.15889 2.93137 8.13569 2.93137C7.10668 2.93137 6.18813 3.19007 5.38004 3.70749C4.57195 4.21908 3.93245 4.97485 3.46155 5.97479C2.99646 6.96892 2.76391 8.19269 2.76391 9.64609C2.76391 11.0995 2.99646 12.3262 3.46155 13.3261C3.93245 14.3202 4.57195 15.076 5.38004 15.5934C6.18813 16.105 7.10668 16.3608 8.13569 16.3608C9.15889 16.3608 10.0745 16.105 10.8826 15.5934C11.6965 15.076 12.336 14.3202 12.8011 13.3261C13.272 12.3262 13.5075 11.0995 13.5075 9.64609ZM20.6479 18.5758H17.7876L24.2146 0.71638H27.3278L33.7547 18.5758H30.8944L25.8453 3.96038H25.7058L20.6479 18.5758ZM21.1276 11.582H30.4061V13.8493H21.1276V11.582Z"/>
</mask>
<path d="M7.22877 12.7854V12.0784H5.79999L6.66667 13.2143L7.22877 12.7854ZM9.87978 12.7854L10.4408 12.3551L10.2285 12.0784H9.87978V12.7854ZM11.7459 15.2184L11.1849 15.6487L11.1912 15.6569L11.1978 15.665L11.7459 15.2184ZM12.6267 16.2998L13.1879 15.8697L13.1815 15.8614L13.1749 15.8533L12.6267 16.2998ZM15.6004 20.1804V20.8874H17.0329L16.1616 19.7503L15.6004 20.1804ZM12.8447 20.1804L12.2839 20.6109L12.4961 20.8874H12.8447V20.1804ZM10.8565 17.5904L10.2833 18.0044L10.2893 18.0127L10.2956 18.0209L10.8565 17.5904ZM10.1763 16.6486L10.7494 16.2346L10.744 16.2271L10.7384 16.2197L10.1763 16.6486ZM15.1295 14.5644L15.7592 14.886L15.7597 14.8849L15.1295 14.5644ZM12.2605 17.7212L12.6268 18.3259L12.6276 18.3254L12.2605 17.7212ZM3.99349 17.7212L3.62504 18.3247L3.62845 18.3267L3.99349 17.7212ZM1.13319 14.5557L1.76343 14.2352L1.13319 14.5557ZM1.13319 4.73649L1.76288 5.05804L1.76343 5.05695L1.13319 4.73649ZM3.99349 1.5797L4.35982 2.18443L4.36065 2.18393L3.99349 1.5797ZM12.2605 1.5797L11.892 2.18315L11.8954 2.18521L12.2605 1.5797ZM15.1295 4.73649L14.4992 5.05695L14.4998 5.05804L15.1295 4.73649ZM12.8011 5.97479L12.16 6.27298L12.1621 6.27746L12.8011 5.97479ZM10.8826 3.70749L10.5014 4.30294L10.5064 4.30608L10.8826 3.70749ZM5.38004 3.70749L5.75824 4.30487L5.76129 4.30292L5.38004 3.70749ZM3.46155 5.97479L2.82189 5.67356L2.82113 5.67519L3.46155 5.97479ZM3.46155 13.3261L2.82045 13.6243L2.82258 13.6288L3.46155 13.3261ZM5.38004 15.5934L4.99879 16.1889L5.00184 16.1908L5.38004 15.5934ZM10.8826 15.5934L11.2608 16.1908L11.2619 16.1901L10.8826 15.5934ZM12.8011 13.3261L12.1615 13.0249L12.1607 13.0265L12.8011 13.3261ZM7.22877 13.4925H9.87978V12.0784H7.22877V13.4925ZM9.31877 13.2158L11.1849 15.6487L12.307 14.7881L10.4408 12.3551L9.31877 13.2158ZM11.1978 15.665L12.0785 16.7463L13.1749 15.8533L12.2941 14.7719L11.1978 15.665ZM12.0655 16.7298L15.0392 20.6104L16.1616 19.7503L13.1879 15.8697L12.0655 16.7298ZM15.6004 19.4733H12.8447V20.8874H15.6004V19.4733ZM13.4056 19.7498L11.4173 17.1599L10.2956 18.0209L12.2839 20.6109L13.4056 19.7498ZM11.4296 17.1764L10.7494 16.2346L9.6031 17.0626L10.2833 18.0044L11.4296 17.1764ZM10.7384 16.2197L7.79087 12.3566L6.66667 13.2143L9.61417 17.0775L10.7384 16.2197ZM15.4689 9.64609C15.4689 11.4677 15.1358 12.9921 14.4992 14.244L15.7597 14.8849C16.5185 13.3927 16.883 11.6382 16.883 9.64609H15.4689ZM14.4998 14.2429C13.8569 15.5019 12.9875 16.4521 11.8933 17.117L12.6276 18.3254C13.9635 17.5137 15.0068 16.3593 15.7592 14.886L14.4998 14.2429ZM11.8941 17.1165C10.8052 17.7761 9.55912 18.1129 8.13569 18.1129V19.527C9.79348 19.527 11.2973 19.1313 12.6268 18.3259L11.8941 17.1165ZM8.13569 18.1129C6.70596 18.1129 5.45359 17.7759 4.35853 17.1157L3.62845 18.3267C4.96349 19.1316 6.47259 19.527 8.13569 19.527V18.1129ZM4.36194 17.1178C3.2741 16.4536 2.40701 15.5009 1.76343 14.2352L0.502957 14.8762C1.25464 16.3545 2.29442 17.5122 3.62505 18.3246L4.36194 17.1178ZM1.76343 14.2352C1.12677 12.9831 0.793773 11.4615 0.793773 9.64609H-0.620288C-0.620288 11.6328 -0.255647 13.3842 0.502957 14.8762L1.76343 14.2352ZM0.793773 9.64609C0.793773 7.82438 1.12695 6.30339 1.76288 5.05804L0.503508 4.41495C-0.255831 5.90199 -0.620288 7.65407 -0.620288 9.64609H0.793773ZM1.76343 5.05695C2.40681 3.79164 3.27328 2.84262 4.35982 2.18443L3.62717 0.974973C2.29524 1.78181 1.25484 2.93732 0.502957 4.41604L1.76343 5.05695ZM4.36065 2.18393C5.4554 1.51869 6.70701 1.17924 8.13569 1.17924V-0.234822C6.47153 -0.234822 4.96167 0.164053 3.62633 0.975479L4.36065 2.18393ZM8.13569 1.17924C9.55806 1.17924 10.8034 1.51844 11.892 2.18314L12.6289 0.976263C11.2991 0.164307 9.79454 -0.234822 8.13569 -0.234822V1.17924ZM11.8954 2.18521C12.9875 2.84362 13.8563 3.7925 14.4992 5.05695L15.7597 4.41604C15.0074 2.93646 13.9635 1.78082 12.6255 0.974197L11.8954 2.18521ZM14.4998 5.05804C15.1357 6.30339 15.4689 7.82438 15.4689 9.64609H16.883C16.883 7.65407 16.5185 5.90199 15.7592 4.41495L14.4998 5.05804ZM14.2145 9.64609C14.2145 8.12014 13.9678 6.78614 13.4401 5.67212L12.1621 6.27746C12.5763 7.1517 12.8004 8.26524 12.8004 9.64609H14.2145ZM13.4422 5.67662C12.9283 4.57176 12.2044 3.70323 11.2589 3.10889L10.5064 4.30608C11.1886 4.73493 11.7437 5.37795 12.16 6.27297L13.4422 5.67662ZM11.2639 3.11205C10.3343 2.51687 9.28465 2.22434 8.13569 2.22434V3.6384C9.03313 3.6384 9.81474 3.86327 10.5014 4.30292L11.2639 3.11205ZM8.13569 2.22434C6.98176 2.22434 5.929 2.51645 4.99879 3.11205L5.76129 4.30292C6.44726 3.8637 7.2316 3.6384 8.13569 3.6384V2.22434ZM5.00184 3.11011C4.06344 3.70421 3.34094 4.5714 2.8219 5.67356L4.1012 6.27602C4.52396 5.37831 5.08045 4.73396 5.75823 4.30486L5.00184 3.11011ZM2.82113 5.67519C2.30037 6.78833 2.05688 8.12118 2.05688 9.64609H3.47094C3.47094 8.2642 3.69255 7.14952 4.10196 6.2744L2.82113 5.67519ZM2.05688 9.64609C2.05688 11.1712 2.30044 12.5062 2.82047 13.6243L4.10263 13.0279C3.69248 12.1461 3.47094 11.0278 3.47094 9.64609H2.05688ZM2.82258 13.6288C3.34174 14.7248 4.06343 15.59 4.99879 16.1889L5.76129 14.998C5.08046 14.5621 4.52316 13.9157 4.10052 13.0234L2.82258 13.6288ZM5.00184 16.1908C5.9317 16.7795 6.98337 17.0678 8.13569 17.0678V15.6538C7.22999 15.6538 6.44456 15.4306 5.75823 14.996L5.00184 16.1908ZM8.13569 17.0678C9.28303 17.0678 10.3316 16.7791 11.2608 16.1908L10.5044 14.996C9.81745 15.431 9.03474 15.6538 8.13569 15.6538V17.0678ZM11.2619 16.1901C12.2044 15.5909 12.9275 14.7244 13.4415 13.6257L12.1607 13.0265C11.7445 13.916 11.1886 14.5611 10.5033 14.9968L11.2619 16.1901ZM13.4408 13.6273C13.9677 12.5084 14.2145 11.1723 14.2145 9.64609H12.8004C12.8004 11.0267 12.5763 12.1439 12.1615 13.0249L13.4408 13.6273ZM20.6479 18.5758V19.2828H21.1514L21.3161 18.807L20.6479 18.5758ZM17.7876 18.5758L17.1224 18.3364L16.7818 19.2828H17.7876V18.5758ZM24.2146 0.71638V0.00934994H23.7176L23.5493 0.476976L24.2146 0.71638ZM27.3278 0.71638L27.993 0.476976L27.8248 0.00934994H27.3278V0.71638ZM33.7547 18.5758V19.2828H34.7606L34.42 18.3364L33.7547 18.5758ZM30.8944 18.5758L30.2261 18.8067L30.3906 19.2828H30.8944V18.5758ZM25.8453 3.96038L26.5136 3.72951L26.3491 3.25335H25.8453V3.96038ZM25.7058 3.96038V3.25335H25.2023L25.0376 3.72915L25.7058 3.96038ZM21.1276 11.582V10.875H20.4205V11.582H21.1276ZM30.4061 11.582H31.1131V10.875H30.4061V11.582ZM30.4061 13.8493V14.5564H31.1131V13.8493H30.4061ZM21.1276 13.8493H20.4205V14.5564H21.1276V13.8493ZM20.6479 17.8688H17.7876V19.2828H20.6479V17.8688ZM18.4529 18.8152L24.8798 0.955785L23.5493 0.476976L17.1224 18.3364L18.4529 18.8152ZM24.2146 1.42341H27.3278V0.00934994H24.2146V1.42341ZM26.6625 0.955785L33.0895 18.8152L34.42 18.3364L27.993 0.476976L26.6625 0.955785ZM33.7547 17.8688H30.8944V19.2828H33.7547V17.8688ZM31.5627 18.3449L26.5136 3.72951L25.177 4.19124L30.2261 18.8067L31.5627 18.3449ZM25.8453 3.25335H25.7058V4.66741H25.8453V3.25335ZM25.0376 3.72915L19.9798 18.3446L21.3161 18.807L26.3739 4.1916L25.0376 3.72915ZM21.1276 12.2891H30.4061V10.875H21.1276V12.2891ZM29.6991 11.582V13.8493H31.1131V11.582H29.6991ZM30.4061 13.1423H21.1276V14.5564H30.4061V13.1423ZM21.8346 13.8493V11.582H20.4205V13.8493H21.8346Z" fill="#0F2451" mask="url(#path-1-outside-1_25_1147)"/>
</svg>
